<svg width="19" height="16" viewBox="0 0 19 16" fill="none" xmlns="http://www.w3.org/2000/svg">
<path d="M17.7437 9.87889L16.8475 10.3056L15.595 8.51629L17.1619 7.77056L16.025 6.14719L14.4581 6.89291L13.1806 5.06854L14.0769 4.64183L12.8469 2.88497L12.53 3.03597C11.0756 1.00082 9.43562 0.228303 8.54875 0H6.88062C8.93562 0.608122 10.4369 1.77592 11.5219 3.51577L11.2244 3.65749C9.34437 1.85838 6.8825 0.51845 4.19687 0.000515014H0.21125C3.59812 0.446299 6.4875 2.13925 8.53437 4.93816L8.47562 4.96599C6.7975 3.59874 5.075 2.41239 3.13812 1.58885C4.42125 2.33148 5.575 3.35395 6.68687 4.63513C4.68875 2.98804 2.65 1.62337 0.163125 0.932802V2.06864C2.41687 2.58297 4.60375 3.96619 6.34812 5.97866L6.055 6.11833L7.285 7.87518L8.18125 7.44846L9.4587 9.27283L2.21125 12.7232L2.03375 12.4696L0 13.438L1.49187 15.5685L3.52562 14.6001L3.34812 14.3465L10.5956 10.8962L11.8481 12.6855L10.9519 13.1123L12.1819 14.8691L18.9725 11.6363L17.7425 9.87939L17.7437 9.87889ZM6.22 1.30128C7.84937 1.8558 9.31687 2.89425 10.0956 4.19398L9.6512 4.40528L6.22 1.30128Z" fill="#2DD4A8"/>
</svg>
